  0
SECTION
  2
HEADER
  9
$ACADVER
  1
AC1009
  9
$INSBASE
 10
0.0
 20
0.0
 30
0.0
  9
$EXTMIN
 10
0.0
 20
0.0
 30
0.0
  9
$EXTMAX
 10
0.0
 20
0.0
 30
0.0
  0
ENDSEC
  0
SECTION
  2
TABLES
  0
TABLE
  2
VPORT
 70
0
  0
ENDTAB
  0
TABLE
  2
LTYPE
 70
1
  0
LTYPE
  2
CONTINUOUS
 70
0
  3
Solid line
 72
65
 73
0
 40
0.0
  0
ENDTAB
  0
TABLE
  2
LAYER
 70
1
  0
LAYER
  2
0
 70
64
 62
7
  6
continuous
  0
ENDTAB
  0
TABLE
  2
STYLE
 70
1
  0
STYLE
  2
STANDARD
 70
0
 40
0
 41
1.0
 50
0.0
 71
0
 42
1
 3
ARIAL.TTF
 4

  0
ENDTAB
  0
TABLE
  2
VIEW
 70
0
  0
ENDTAB
  0
ENDSEC
  0
SECTION
  2
BLOCKS
  0
BLOCK
  8
0
  2
FACEFEAT
 70
0
 10
0.0
 20
0.0
 30
0.0
  3
FACEFEAT
  0
CIRCLE
  8
0
 62
0
 10
-10.3499987818301
 20
30.0500005029142
 30
0.0
 40
0.999999973177914
  0
CIRCLE
  8
0
 62
0
 10
-54.6999987818301
 20
-22.4999994970858
 30
0.0
 40
0.999999973177914
  0
CIRCLE
  8
0
 62
0
 10
-54.6999987818301
 20
7.2000005029142
 30
0.0
 40
0.999999973177914
  0
CIRCLE
  8
0
 62
0
 10
-25.7499987818301
 20
-7.64999949708581
 30
0.0
 40
0.999999973177914
  0
ARC
  8
0
 62
0
 10
-53.3999987617135
 20
-15.1499996166676
 30
0.0
 40
1.99999999999999
 50
180.0
 51
-90.0
  0
LINE
  8
0
 62
0
 10
-49.799998909235
 20
-17.1499996166676
 30
0.0
 11
-53.3999987617135
 21
-17.1499996166676
 31
0.0
  0
ARC
  8
0
 62
0
 10
-49.799998909235
 20
-18.1499996166676
 30
0.0
 40
0.999999999999996
 50
-0.0
 51
90.0
  0
LINE
  8
0
 62
0
 10
-48.799998909235
 20
-27.0999993160367
 30
0.0
 11
-48.799998909235
 21
-18.1499996166676
 31
0.0
  0
ARC
  8
0
 62
0
 10
-45.299998909235
 20
-27.0999993160367
 30
0.0
 40
3.50000000000001
 50
-180.0
 51
-90.0
  0
LINE
  8
0
 62
0
 10
-32.299999358505
 20
-30.5999993160367
 30
0.0
 11
-45.299998909235
 21
-30.5999993160367
 31
0.0
  0
ARC
  8
0
 62
0
 10
-32.299999358505
 20
-26.9999993160367
 30
0.0
 40
3.6
 50
-90.0
 51
-0.0
  0
LINE
  8
0
 62
0
 10
-28.699999358505
 20
-26.899999409914
 30
0.0
 11
-28.699999358505
 21
-26.9999993160367
 31
0.0
  0
ARC
  8
0
 62
0
 10
-28.199999358505
 20
-26.899999409914
 30
0.0
 40
0.499999999999998
 50
90.0
 51
-180.0
  0
LINE
  8
0
 62
0
 10
-24.3499995339662
 20
-26.399999409914
 30
0.0
 11
-28.199999358505
 21
-26.399999409914
 31
0.0
  0
ARC
  8
0
 62
0
 10
-24.3499995339662
 20
-22.899999409914
 30
0.0
 40
3.49999999999999
 50
-90.00000000000006
 51
0.0
  0
LINE
  8
0
 62
0
 10
-20.8499995339662
 20
-20.4999996200204
 30
0.0
 11
-20.8499995339662
 21
-22.899999409914
 31
0.0
  0
ARC
  8
0
 62
0
 10
-24.3499995339662
 20
-20.4999996200204
 30
0.0
 40
3.5
 50
0.0
 51
90.00000000000006
  0
LINE
  8
0
 62
0
 10
-28.199999358505
 20
-16.9999996200204
 30
0.0
 11
-24.3499995339662
 21
-16.9999996200204
 31
0.0
  0
ARC
  8
0
 62
0
 10
-28.199999358505
 20
-16.4999996200204
 30
0.0
 40
0.499999999999998
 50
-180.0
 51
-90.0
  0
LINE
  8
0
 62
0
 10
-28.699999358505
 20
1.1499999631196296
 30
0.0
 11
-28.699999358505
 21
-16.4999996200204
 31
0.0
  0
ARC
  8
0
 62
0
 10
-28.199999358505
 20
1.14999996311963
 30
0.0
 40
0.499999999999998
 50
90.0
 51
-180.0
  0
LINE
  8
0
 62
0
 10
-24.3499995339662
 20
1.6499999631196305
 30
0.0
 11
-28.199999358505
 21
1.6499999631196292
 31
0.0
  0
ARC
  8
0
 62
0
 10
-24.3499995339662
 20
5.14999996311963
 30
0.0
 40
3.5
 50
-90.0
 51
0.0
  0
LINE
  8
0
 62
0
 10
-20.8499995339662
 20
7.49999996311963
 30
0.0
 11
-20.8499995339662
 21
5.14999996311963
 31
0.0
  0
ARC
  8
0
 62
0
 10
-24.3499995339662
 20
7.49999996311963
 30
0.0
 40
3.5
 50
0.0
 51
90.0
  0
LINE
  8
0
 62
0
 10
-28.2499993573874
 20
10.9999999631196
 30
0.0
 11
-24.3499995339662
 21
10.9999999631196
 31
0.0
  0
ARC
  8
0
 62
0
 10
-28.2499993573874
 20
11.4999999631196
 30
0.0
 40
0.499999999999994
 50
180.0
 51
-90.0
  0
LINE
  8
0
 62
0
 10
-28.7499993573874
 20
11.6000214665476
 30
0.0
 11
-28.7499993573874
 21
11.4999999631196
 31
0.0
  0
ARC
  8
0
 62
0
 10
-32.3499993573871
 20
11.6000214665477
 30
0.0
 40
3.59999999999972
 50
-0.0
 51
89.99965294100791
  0
LINE
  8
0
 62
0
 10
-45.1499989069998
 20
15.199999963119666
 30
0.0
 11
-32.3499775510275
 21
15.2000214664814
 31
0.0
  0
ARC
  8
0
 62
0
 10
-45.1499989069998
 20
11.4499999631196
 30
0.0
 40
3.74999999999999
 50
89.9999999999999
 51
-180.0
  0
LINE
  8
0
 62
0
 10
-48.8999989069998
 20
2.74999996088445
 30
0.0
 11
-48.8999989069998
 21
11.4499999631196
 31
0.0
  0
ARC
  8
0
 62
0
 10
-49.8999989069998
 20
2.74999996088445
 30
0.0
 40
0.999999999999994
 50
-90.0
 51
-0.0
  0
LINE
  8
0
 62
0
 10
-53.3999987617135
 20
1.74999996088446
 30
0.0
 11
-49.8999989069998
 21
1.7499999608844552
 31
0.0
  0
ARC
  8
0
 62
0
 10
-53.3999987617135
 20
-0.250000039115538
 30
0.0
 40
1.99999999999999
 50
90.0
 51
-180.0
  0
LINE
  8
0
 62
0
 10
-55.3999987617135
 20
-15.1499996166676
 30
0.0
 11
-55.3999987617135
 21
-0.25000003911554103
 31
0.0
  0
LINE
  8
0
 62
0
 10
90.00000134110448
 20
43.4999990276992
 30
0.0
 11
-62.7999985963106
 21
43.4999990276992
 31
0.0
  0
LINE
  8
0
 62
0
 10
93.849997902289
 20
43.5000006482005
 30
0.0
 11
90.0000013411045
 21
43.49999902769922
 31
0.0
  0
LINE
  8
0
 62
0
 10
93.849997902289
 20
-44.9999989941716
 30
0.0
 11
93.849997902289
 21
43.50000064820049
 31
0.0
  0
LINE
  8
0
 62
0
 10
-62.7999985963106
 20
-44.9999989941716
 30
0.0
 11
93.84999790228899
 21
-44.9999989941716
 31
0.0
  0
LINE
  8
0
 62
0
 10
-62.7999985963106
 20
43.4999990276992
 30
0.0
 11
-62.7999985963106
 21
-44.9999989941716
 31
0.0
  0
ENDBLK
  0
ENDSEC
  0
SECTION
  2
ENTITIES
  0
INSERT
  2
FACEFEAT
  8
0
 62
0
 10
0.0
 20
0.0
 30
0.0
  0
ENDSEC
  0
EOF
